<svg xmlns="http://www.w3.org/2000/svg" viewBox="0 0 1560.3 1560.3"><defs><style>.cls-1{fill:#458fe8;}.cls-1,.cls-2,.cls-3,.cls-4,.cls-6,.cls-7{stroke:#000;stroke-miterlimit:10;stroke-width:7px;}.cls-2{fill:#fdd327;}.cls-3{fill:#cf0000;}.cls-4{fill:#fdd227;}.cls-5{fill:#fff;}.cls-6{fill:#3f3f3f;}.cls-7{fill:#f96a79;}</style></defs><g id="Wings_-_front" data-name="Wings - front"><path class="cls-1" d="M489.77,1011.67c-1.37,36.46,43.45,63.2,62.48,74.56,43,25.64,85.44,28,85.6,27.42.11-.43-21.87-2.45-46.1-17.13-30.79-18.64-44.87-45.4-44-46.09,1-.87,24.64,40.14,71.83,56.84,5,1.76,39.19,13.87,47.9,2.14,6.58-8.86-6.52-29.28-32.39-70.33-21.23-33.69-32-44.31-41.77-52-21-16.58-37.3-19.71-41.77-20.46-8.52-1.42-26.06-3.91-41.35,6.82C497.2,982.54,490.28,998.12,489.77,1011.67Z"/><path class="cls-2" d="M463.26,913.37c-28.41,27.7,29.1,141.56,47.72,137.46,6.76-1.48,10.15-18.88,9.39-31-1.24-19.41-13.64-32.84-12.24-33.85,1.82-1.33,16.55,26.33,44.87,39.56,15.14,7.08,41.59,13.5,50.58,2.86,13-15.38-14.47-61.65-41.43-88.2-10.25-10.1-25.31-24.57-49.86-30.27C501.78,907.5,475.53,901.4,463.26,913.37Z"/><path class="cls-3" d="M566.42,855l38.8,94.56-44.77,22.48c-46.78,17.83-61-35.9-61-35.9-7.08,14.72-16.36,22.24-21.66,25.79-5,3.38-9.51,6.37-13.39,4.82-8.07-3.22-8.9-24.1-9.11-28.71h0a108.07,108.07,0,0,1,22.42-75.84c1-1.68,15.5-25.86,44.32-27.19C548.57,833.8,564.72,852.92,566.42,855Z"/></g><g id="Body"><path class="cls-3" d="M596.85,740.31s-259.2-432,87.64-428.3c99.15,1.05,159.87,30.15,196,71.18,72,81.71,78.74,209.4,27.38,279.36a141.8,141.8,0,0,1-13.71,16c-16.51,22.8-34.75,56.38-30.27,94.17,3.59,30.3,3.71,64.77,82.24,121.86,181.07,131.63,0,220.94,0,220.94s-192.55,87.64-341.9-67.89S638.82,822.86,596.85,740.31Z"/></g><g id="face"><path class="cls-4" d="M575.63,451.32c33.23-73.83,111.62-109.85,176-89.83,78.62,24.43,102.81,121.82,96.52,142.73,0,0-.55,1.8-7.41,23.9,0,0-37.67,80.41-10.14,121S811.09,760,752.41,766.47,580.71,752.7,556.8,696.19,489.42,586.8,575.63,451.32Z"/><path d="M710.86,416.11c29.63,5.19,49.73,34.6,48.14,63.64-1.74,31.65-29.19,61.15-63.23,58.74-33.62-2.39-57.13-34.73-54.36-66.54C644.4,437.74,677.28,410.23,710.86,416.11Z"/><circle class="cls-5" cx="704.18" cy="454.71" r="23.91"/><circle class="cls-5" cx="674.48" cy="492.61" r="10.12"/></g><g id="Body_Parts" data-name="Body Parts"><path class="cls-1" d="M943.39,1116.73c147.2,54.76,196.7,56.6,205.37,41,8.8-15.87-16.47-63.68-48.31-71.78-6.22-1.59-13.09-1.75-13.07-2,.08-1.23,122.81,16.61,129.19-4.13-2.09-2.47-5.31-6.29-9.25-10.92-35.52-41.76-46.56-52.67-60.39-53.48-3.69-.22-10.92.08-11-.82s6.69-2.23,7.75-2.45c22.57-4.72,58-43,58-43,42.44-45.79,62.42-52.32,59.17-59-5.32-10.88-65.49-2.61-98.63,31.08-5.45,5.55-11.42,13-12.06,12.55C1148,952.07,1225.93,869.1,1212,851s-113.47,37.84-120.57,68.1c0,0-1.52,6.48-2.11,6.38-1.48-.27,11.45-47.23,2.11-52.48-7.41-4.17-30.3,17.18-78.65,82.11Z"/><path class="cls-6" d="M661.84,575.54c8,14.6-34.76,54.74-60.08,73.6-30.47,22.7-91.94,58.65-195,60.31,0,0,99.4-88.74,46.62-114.64l86.76-4c35.73-14.54,66.1-18.85,87.09-20C645.88,569.65,658.28,569.08,661.84,575.54Z"/><path class="cls-6" d="M524.44,386.14s-176.38-79.7-224.76,137.57,66.64,163.72,66.64,163.72c27.38-62,58.13-86.43,87.07-92.62,26.45-5.66,37.11,7,83.7,10.17,57.57,4,122.1-9.74,124.75-29.44,1.71-12.82-24.71-13.71-49.48-45.17-28.42-36.1-16.8-64.38-45.12-104.31A149.4,149.4,0,0,0,524.44,386.14Z"/><path class="cls-1" d="M771.5,1020.64c33.59,43.83,67.25,59,88.35,65.1,20.38,5.88,41.27,6.79,41.92,4.26s-17.06-6.67-37-22.85c-9-7.34-17.13-16-16-17.4,1.36-1.8,15.9,9.82,40.52,19,15.66,5.87,33.54,10.06,34.77,7.22,1.05-2.44-11.2-7.68-26.34-22.72-12.11-12-19.77-24.07-18.49-25.29,1.53-1.45,13.8,14.39,36.44,21.21,1.33.4,21.15,6.25,24.18.79,2.69-4.83-10-14.69-22.82-30.7A176.36,176.36,0,0,1,889.94,972l-89.36,7Z"/><path class="cls-2" d="M861.36,928.62c7.86,5.62,19.41,16,25.18,32.2,2.46,6.93,5.13,14.44,2.05,22.17-4.64,11.62-19.64,17.11-31.15,17-16-.17-27.83-11.28-29.09-9.52-1.69,2.35,21.8,18.09,18.2,28.59-.8,2.35-2.69,3.61-4.61,4.86-12,7.83-32.6,3.56-47-6.8-12.28-8.8-18.26-20.64-19-20.12-1.2.8,18.44,25,12.78,32.36-4.42,5.76-23.16-.24-35.35-7.34-21.59-12.57-31.92-34-36.85-48.35l-10.17-22.37L829,912.06Z"/><path class="cls-3" d="M682.31,932c.09,8.34,1.55,25.8,13.87,40.52,9.93,11.88,25.74,20.57,29.57,17.1,5.39-4.88-13.11-33.69-11.62-34.5.56-.31,3.27,3.9,5.1,6.3,14,18.36,47.06,23.35,50.92,16.54,1.93-3.4-4.61-11.78-17.68-28.55-6.09-7.81-10.61-12.77-10.06-13.33.84-.85,11.31,10.76,28,20.94,11.65,7.1,26.46,15.87,44.82,14,6.41-.65,19.07-1.85,22.35-9.39,5.74-13.22-21-37.32-34.33-46.64-1.06-.74-9-6.26-9.38-5.71s4.16,4.77,8.56,8.15a69.83,69.83,0,0,0,17.75,9.93c11.82,4.42,36.32,9.36,41.17,1.25,4.61-7.72-9.49-25.81-22.16-37.21-60.26-54.24-115.43-35.95-115.43-35.95a80,80,0,0,0-18.28,14.31C683.75,892.69,682.34,922.08,682.31,932Z"/><path class="cls-7" d="M515.57,602.67C510,645.36,466,671.79,474.86,680c15.32,14.28,159-58.83,157.68-82.49C632.54,597.54,594.43,613.35,515.57,602.67Z"/></g></svg>